<svg width="145" height="36" viewBox="0 0 145 36" fill="none" xmlns="http://www.w3.org/2000/svg">
<path d="M14.0904 20.5486C13.9065 21.5051 14.0048 22.503 14.3703 23.391C14.7358 24.2789 15.3487 25.0087 16.116 25.4696C16.8834 25.9305 17.7633 26.0975 18.6226 25.9452C19.4818 25.7928 20.2735 25.3296 20.8777 24.6256L20.0214 23.6955C19.597 24.19 19.0409 24.5154 18.4373 24.6224C17.8338 24.7294 17.2156 24.6121 16.6767 24.2883C16.1377 23.9646 15.7072 23.452 15.4504 22.8282C15.1937 22.2045 15.1247 21.5036 15.2538 20.8317L14.0904 20.5486Z" fill="#5F3EBC"/>
<path d="M32.3118 12.592C31.5524 10.7799 30.4515 9.15268 29.0493 7.74643C27.6621 6.35547 26.0177 5.24742 24.2077 4.48393C22.3333 3.68919 20.3174 3.28191 18.2814 3.28661C16.5979 3.28661 14.9506 3.5558 13.3836 4.09018C9.72336 2.38259 5.49658 2.25 4.28318 2.25C4.19479 2.25 3.98586 2.25 3.9055 2.25804C3.42738 2.27411 2.98943 2.5192 2.73229 2.91696C2.47113 3.31473 2.42291 3.81696 2.59568 4.26295L5.17916 10.7558C3.788 13.1059 3.05522 15.7873 3.05774 18.5183C3.05774 20.5835 3.45952 22.5763 4.25506 24.4487C5.01443 26.2567 6.11131 27.8879 7.51756 29.2902C8.91175 30.6884 10.547 31.7853 12.3591 32.5527C14.2354 33.3482 16.2283 33.75 18.2814 33.75C20.3426 33.75 22.3354 33.3442 24.2158 32.5527C26.0198 31.7933 27.651 30.6924 29.0533 29.2902C30.4475 27.892 31.5484 26.2607 32.3158 24.4446C33.1101 22.5687 33.5174 20.5515 33.5131 18.5143C33.5051 16.4571 33.1073 14.4643 32.3118 12.592ZM29.6439 23.2996C29.0244 24.771 28.1252 26.1082 26.9961 27.2371C25.8551 28.3821 24.5332 29.2741 23.0707 29.8848H23.0667C21.5399 30.5277 19.9207 30.8571 18.2493 30.8571C16.6256 30.8589 15.0177 30.5397 13.5179 29.9177C12.0182 29.2957 10.6562 28.3834 9.51042 27.233C8.36934 26.0879 7.47738 24.7661 6.86666 23.3036V23.2996C6.22381 21.7808 5.89836 20.1576 5.89836 18.4821C5.89836 16.2563 6.493 14.0746 7.618 12.1741L8.14836 11.2862L7.76666 10.3259L5.7055 5.14286C6.30416 5.16696 7.14792 5.22723 8.10417 5.36786C9.86399 5.62902 11.4189 6.07098 12.7207 6.67768L13.4841 7.03527L14.2836 6.76205C15.5493 6.32813 16.8872 6.11116 18.2573 6.11116C19.8809 6.10936 21.4888 6.42863 22.9886 7.0506C24.4884 7.67256 25.8503 8.58495 26.9961 9.73527C28.1372 10.8804 29.0292 12.2022 29.6399 13.6647L29.6439 13.6688L29.6479 13.6728C30.2908 15.1835 30.6162 16.8067 30.6202 18.4862C30.6162 20.1616 30.2868 21.7808 29.6439 23.2996ZM24.7943 12.0616C23.9747 12.0616 23.3037 12.7326 23.3037 13.5522V15.7661C23.3037 16.5857 23.9707 17.2567 24.7943 17.2567C25.618 17.2567 26.285 16.5857 26.285 15.7661V13.5522C26.285 12.7286 25.614 12.0616 24.7943 12.0616ZM17.7551 12.0616C16.9314 12.0616 16.2644 12.7326 16.2644 13.5522V15.7661C16.2644 16.5857 16.9354 17.2567 17.7551 17.2567C18.5787 17.2567 19.2457 16.5857 19.2457 15.7661V13.5522C19.2457 12.7286 18.5747 12.0616 17.7551 12.0616V12.0616Z" fill="#5F3EBC"/>
<path d="M49.179 15.0994C49.0606 14.7159 48.8973 14.3726 48.6889 14.0696C48.4853 13.7618 48.2391 13.4991 47.9503 13.2812C47.6662 13.0634 47.3395 12.9001 46.9702 12.7912C46.6009 12.6776 46.1984 12.6207 45.7628 12.6207C44.9815 12.6207 44.2855 12.8172 43.6747 13.2102C43.0639 13.6032 42.5833 14.1809 42.233 14.9432C41.8873 15.7008 41.7145 16.6241 41.7145 17.7131C41.7145 18.8116 41.8873 19.742 42.233 20.5043C42.5786 21.2666 43.0592 21.8466 43.6747 22.2443C44.2902 22.6373 45.0052 22.8338 45.8196 22.8338C46.5582 22.8338 47.1974 22.6918 47.7372 22.4077C48.2817 22.1236 48.7008 21.7211 48.9943 21.2003C49.2879 20.6747 49.4347 20.0592 49.4347 19.3537L50.0312 19.446H46.0824V17.3864H51.9844V19.1335C51.9844 20.3788 51.7192 21.456 51.1889 22.3651C50.6586 23.2741 49.9295 23.9749 49.0014 24.4673C48.0734 24.955 47.008 25.1989 45.8054 25.1989C44.4654 25.1989 43.2888 24.8982 42.2756 24.2969C41.267 23.6908 40.4787 22.8314 39.9105 21.7188C39.3471 20.6013 39.0653 19.2756 39.0653 17.7415C39.0653 16.5672 39.2311 15.5185 39.5625 14.5952C39.8987 13.6719 40.3674 12.8883 40.9688 12.2443C41.5701 11.5956 42.2756 11.1032 43.0852 10.767C43.8949 10.4261 44.7756 10.2557 45.7273 10.2557C46.5322 10.2557 47.2827 10.3741 47.9787 10.6108C48.6747 10.8428 49.2926 11.1742 49.8324 11.6051C50.3769 12.036 50.8243 12.5473 51.1747 13.1392C51.5251 13.7311 51.7547 14.3845 51.8636 15.0994H49.179ZM57.5579 25.2202C56.8666 25.2202 56.244 25.0971 55.69 24.8509C55.1407 24.5999 54.7051 24.2306 54.3832 23.7429C54.0659 23.2552 53.9073 22.6539 53.9073 21.9389C53.9073 21.3234 54.021 20.8144 54.2482 20.4119C54.4755 20.0095 54.7856 19.6875 55.1786 19.446C55.5716 19.2045 56.0143 19.0223 56.5067 18.8991C57.0039 18.7713 57.5176 18.679 58.0479 18.6222C58.6871 18.5559 59.2056 18.4967 59.6033 18.4446C60.0011 18.3878 60.2899 18.3026 60.4698 18.1889C60.6545 18.0705 60.7468 17.8883 60.7468 17.642V17.5994C60.7468 17.0644 60.5882 16.6501 60.271 16.3565C59.9537 16.063 59.4968 15.9162 58.9002 15.9162C58.2705 15.9162 57.771 16.0535 57.4016 16.3281C57.0371 16.6027 56.7908 16.9271 56.663 17.3011L54.2624 16.9602C54.4518 16.2973 54.7643 15.7434 55.1999 15.2983C55.6355 14.8485 56.1682 14.5123 56.7979 14.2898C57.4277 14.0625 58.1237 13.9489 58.886 13.9489C59.4116 13.9489 59.9348 14.0104 60.4556 14.1335C60.9764 14.2566 61.4523 14.4602 61.8832 14.7443C62.314 15.0237 62.6597 15.4048 62.9201 15.8878C63.1853 16.3707 63.3178 16.9744 63.3178 17.6989V25H60.8462V23.5014H60.761C60.6048 23.8045 60.3846 24.0885 60.1005 24.3537C59.8211 24.6141 59.4684 24.8248 59.0423 24.9858C58.6209 25.142 58.1261 25.2202 57.5579 25.2202ZM58.2255 23.331C58.7416 23.331 59.189 23.2292 59.5678 23.0256C59.9466 22.8172 60.2378 22.5426 60.4414 22.2017C60.6497 21.8608 60.7539 21.4891 60.7539 21.0866V19.8011C60.6734 19.8674 60.5361 19.929 60.342 19.9858C60.1526 20.0426 59.9395 20.0923 59.7028 20.1349C59.466 20.1776 59.2317 20.2154 58.9996 20.2486C58.7676 20.2817 58.5664 20.3101 58.396 20.3338C58.0124 20.3859 57.6692 20.4711 57.3661 20.5895C57.0631 20.7079 56.824 20.8736 56.6488 21.0866C56.4736 21.295 56.386 21.5649 56.386 21.8963C56.386 22.3698 56.5588 22.7273 56.9045 22.9688C57.2501 23.2102 57.6905 23.331 58.2255 23.331ZM65.9031 25V14.0909H68.3604V15.9446H68.4883C68.7156 15.3196 69.092 14.8319 69.6175 14.4815C70.1431 14.1264 70.7705 13.9489 71.4996 13.9489C72.2383 13.9489 72.8609 14.1288 73.3675 14.4886C73.8789 14.8437 74.2388 15.3291 74.4471 15.9446H74.5607C74.8022 15.3385 75.2094 14.8556 75.7823 14.4957C76.36 14.1312 77.0442 13.9489 77.8349 13.9489C78.8387 13.9489 79.6578 14.2661 80.2923 14.9006C80.9267 15.535 81.244 16.4607 81.244 17.6776V25H78.6658V18.0753C78.6658 17.3982 78.4859 16.9034 78.1261 16.5909C77.7662 16.2737 77.3259 16.1151 76.805 16.1151C76.1848 16.1151 75.6995 16.3092 75.3491 16.6974C75.0034 17.081 74.8306 17.5805 74.8306 18.196V25H72.3093V17.9688C72.3093 17.4053 72.1388 16.9555 71.7979 16.6193C71.4618 16.2831 71.0214 16.1151 70.4769 16.1151C70.1076 16.1151 69.7714 16.2098 69.4684 16.3991C69.1654 16.5838 68.9239 16.8466 68.744 17.1875C68.564 17.5237 68.4741 17.9167 68.4741 18.3665V25H65.9031ZM88.6818 25.2131C87.5881 25.2131 86.6435 24.9858 85.848 24.5312C85.0573 24.072 84.4489 23.4233 84.0227 22.5852C83.5966 21.7424 83.3835 20.7505 83.3835 19.6094C83.3835 18.4872 83.5966 17.5024 84.0227 16.6548C84.4536 15.8026 85.0549 15.1397 85.8267 14.6662C86.5985 14.188 87.5052 13.9489 88.5469 13.9489C89.2192 13.9489 89.8537 14.0578 90.4503 14.2756C91.0516 14.4886 91.5819 14.8201 92.0412 15.2699C92.5052 15.7197 92.8698 16.2926 93.1349 16.9886C93.4001 17.6799 93.5327 18.5038 93.5327 19.4602V20.2486H84.5909V18.5156H91.0682C91.0634 18.0232 90.9569 17.5852 90.7486 17.2017C90.5402 16.8134 90.2491 16.508 89.875 16.2855C89.5057 16.063 89.0748 15.9517 88.5824 15.9517C88.0568 15.9517 87.5952 16.0795 87.1974 16.3352C86.7997 16.5862 86.4896 16.9176 86.267 17.3295C86.0492 17.7367 85.938 18.1842 85.9332 18.6719V20.1847C85.9332 20.8191 86.0492 21.3636 86.2812 21.8182C86.5133 22.268 86.8376 22.6136 87.2543 22.8551C87.6709 23.0919 88.1586 23.2102 88.7173 23.2102C89.0914 23.2102 89.4299 23.1581 89.733 23.054C90.036 22.9451 90.2988 22.7865 90.5213 22.5781C90.7438 22.3698 90.9119 22.1117 91.0256 21.804L93.4261 22.0739C93.2746 22.7083 92.9858 23.2623 92.5597 23.7358C92.1383 24.2045 91.5985 24.5691 90.9403 24.8295C90.2822 25.0852 89.5294 25.2131 88.6818 25.2131ZM104.33 16.9744L101.986 17.2301C101.92 16.9934 101.804 16.7708 101.638 16.5625C101.477 16.3542 101.259 16.1861 100.985 16.0582C100.71 15.9304 100.374 15.8665 99.9762 15.8665C99.4412 15.8665 98.9914 15.9825 98.6268 16.2145C98.2669 16.4465 98.0894 16.7472 98.0941 17.1165C98.0894 17.4337 98.2054 17.6918 98.4421 17.8906C98.6836 18.0895 99.0813 18.2528 99.6353 18.3807L101.496 18.7784C102.528 19.0009 103.295 19.3537 103.797 19.8366C104.304 20.3196 104.56 20.9517 104.564 21.733C104.56 22.4195 104.358 23.0256 103.961 23.5511C103.568 24.072 103.021 24.4792 102.32 24.7727C101.619 25.0663 100.814 25.2131 99.9052 25.2131C98.57 25.2131 97.4951 24.9337 96.6808 24.375C95.8664 23.8116 95.381 23.0279 95.2248 22.0241L97.7319 21.7827C97.8455 22.2751 98.087 22.6468 98.4563 22.8977C98.8256 23.1487 99.3062 23.2741 99.8981 23.2741C100.509 23.2741 100.999 23.1487 101.368 22.8977C101.742 22.6468 101.929 22.3366 101.929 21.9673C101.929 21.6548 101.809 21.3968 101.567 21.1932C101.33 20.9896 100.961 20.8333 100.459 20.7244L98.5984 20.3338C97.552 20.116 96.7778 19.7491 96.2759 19.233C95.774 18.7121 95.5254 18.054 95.5302 17.2585C95.5254 16.5862 95.7077 16.0038 96.0771 15.5114C96.4511 15.0142 96.9696 14.6307 97.6325 14.3608C98.3001 14.0862 99.0695 13.9489 99.9407 13.9489C101.219 13.9489 102.225 14.2211 102.959 14.7656C103.698 15.3101 104.155 16.0464 104.33 16.9744ZM112.132 14.0909V16.0795H105.86V14.0909H112.132ZM107.409 11.4773H109.98V21.7188C109.98 22.0644 110.032 22.3295 110.136 22.5142C110.245 22.6941 110.387 22.8172 110.562 22.8835C110.737 22.9498 110.931 22.983 111.145 22.983C111.306 22.983 111.452 22.9711 111.585 22.9474C111.722 22.9238 111.826 22.9025 111.897 22.8835L112.331 24.8935C112.193 24.9408 111.997 24.9929 111.741 25.0497C111.49 25.1065 111.182 25.1397 110.818 25.1491C110.174 25.1681 109.594 25.071 109.078 24.858C108.562 24.6402 108.152 24.304 107.849 23.8494C107.551 23.3949 107.404 22.8267 107.409 22.1449V11.4773ZM118.923 25.2131C117.858 25.2131 116.935 24.9787 116.153 24.5099C115.372 24.0412 114.766 23.3854 114.335 22.5426C113.909 21.6998 113.696 20.715 113.696 19.5881C113.696 18.4612 113.909 17.474 114.335 16.6264C114.766 15.7789 115.372 15.1207 116.153 14.652C116.935 14.1832 117.858 13.9489 118.923 13.9489C119.989 13.9489 120.912 14.1832 121.693 14.652C122.474 15.1207 123.078 15.7789 123.504 16.6264C123.935 17.474 124.151 18.4612 124.151 19.5881C124.151 20.715 123.935 21.6998 123.504 22.5426C123.078 23.3854 122.474 24.0412 121.693 24.5099C120.912 24.9787 119.989 25.2131 118.923 25.2131ZM118.938 23.1534C119.515 23.1534 119.998 22.9948 120.386 22.6776C120.775 22.3556 121.063 21.9247 121.253 21.3849C121.447 20.8452 121.544 20.2438 121.544 19.581C121.544 18.9134 121.447 18.3097 121.253 17.7699C121.063 17.2254 120.775 16.7921 120.386 16.4702C119.998 16.1482 119.515 15.9872 118.938 15.9872C118.346 15.9872 117.853 16.1482 117.46 16.4702C117.072 16.7921 116.781 17.2254 116.587 17.7699C116.397 18.3097 116.303 18.9134 116.303 19.581C116.303 20.2438 116.397 20.8452 116.587 21.3849C116.781 21.9247 117.072 22.3556 117.46 22.6776C117.853 22.9948 118.346 23.1534 118.938 23.1534ZM126.333 25V14.0909H128.826V15.9091H128.939C129.138 15.2794 129.479 14.794 129.962 14.4531C130.45 14.1075 131.006 13.9347 131.631 13.9347C131.773 13.9347 131.932 13.9418 132.107 13.956C132.287 13.9654 132.436 13.982 132.554 14.0057V16.3707C132.445 16.3329 132.273 16.2997 132.036 16.2713C131.804 16.2382 131.579 16.2216 131.361 16.2216C130.892 16.2216 130.471 16.3234 130.097 16.527C129.728 16.7259 129.436 17.0028 129.223 17.358C129.01 17.7131 128.904 18.1226 128.904 18.5866V25H126.333ZM138.643 25.2131C137.549 25.2131 136.604 24.9858 135.809 24.5312C135.018 24.072 134.41 23.4233 133.984 22.5852C133.558 21.7424 133.344 20.7505 133.344 19.6094C133.344 18.4872 133.558 17.5024 133.984 16.6548C134.415 15.8026 135.016 15.1397 135.788 14.6662C136.559 14.188 137.466 13.9489 138.508 13.9489C139.18 13.9489 139.815 14.0578 140.411 14.2756C141.013 14.4886 141.543 14.8201 142.002 15.2699C142.466 15.7197 142.831 16.2926 143.096 16.9886C143.361 17.6799 143.494 18.5038 143.494 19.4602V20.2486H134.552V18.5156H141.029C141.024 18.0232 140.918 17.5852 140.71 17.2017C140.501 16.8134 140.21 16.508 139.836 16.2855C139.467 16.063 139.036 15.9517 138.543 15.9517C138.018 15.9517 137.556 16.0795 137.158 16.3352C136.761 16.5862 136.451 16.9176 136.228 17.3295C136.01 17.7367 135.899 18.1842 135.894 18.6719V20.1847C135.894 20.8191 136.01 21.3636 136.242 21.8182C136.474 22.268 136.799 22.6136 137.215 22.8551C137.632 23.0919 138.12 23.2102 138.678 23.2102C139.052 23.2102 139.391 23.1581 139.694 23.054C139.997 22.9451 140.26 22.7865 140.482 22.5781C140.705 22.3698 140.873 22.1117 140.987 21.804L143.387 22.0739C143.236 22.7083 142.947 23.2623 142.521 23.7358C142.099 24.2045 141.559 24.5691 140.901 24.8295C140.243 25.0852 139.49 25.2131 138.643 25.2131Z" fill="#2E2E2E"/>
</svg>
